<svg id="visual" viewBox="0 0 900 600" width="900" height="600" xmlns="http://www.w3.org/2000/svg" xmlns:xlink="http://www.w3.org/1999/xlink" version="1.1"><path d="M0 43L82 91L164 91L245 85L327 55L409 73L491 49L573 49L655 67L736 43L818 37L900 43L900 0L818 0L736 0L655 0L573 0L491 0L409 0L327 0L245 0L164 0L82 0L0 0Z" fill="#000000"></path><path d="M0 109L82 145L164 211L245 145L327 175L409 193L491 169L573 169L655 187L736 91L818 145L900 151L900 41L818 35L736 41L655 65L573 47L491 47L409 71L327 53L245 83L164 89L82 89L0 41Z" fill="#070707"></path><path d="M0 307L82 385L164 421L245 259L327 307L409 361L491 307L573 397L655 343L736 283L818 391L900 343L900 149L818 143L736 89L655 185L573 167L491 167L409 191L327 173L245 143L164 209L82 143L0 107Z" fill="#0e0e0e"></path><path d="M0 421L82 451L164 517L245 313L327 403L409 499L491 463L573 475L655 487L736 451L818 445L900 403L900 341L818 389L736 281L655 341L573 395L491 305L409 359L327 305L245 257L164 419L82 383L0 305Z" fill="#131313"></path><path d="M0 601L82 601L164 601L245 601L327 601L409 601L491 601L573 601L655 601L736 601L818 601L900 601L900 401L818 443L736 449L655 485L573 473L491 461L409 497L327 401L245 311L164 515L82 449L0 419Z" fill="#171717"></path></svg>