<svg id="visual" viewBox="0 0 900 600" width="900" height="600" xmlns="http://www.w3.org/2000/svg" xmlns:xlink="http://www.w3.org/1999/xlink" version="1.1"><rect x="0" y="0" width="900" height="600" fill="#050505"></rect><path d="M0 442L129 475L257 439L386 438L514 460L643 411L771 409L900 471L900 601L771 601L643 601L514 601L386 601L257 601L129 601L0 601Z" fill="#0c0c0c"></path><path d="M0 478L129 489L257 441L386 503L514 446L643 492L771 499L900 451L900 601L771 601L643 601L514 601L386 601L257 601L129 601L0 601Z" fill="#0b0b0b"></path><path d="M0 492L129 480L257 494L386 470L514 515L643 477L771 526L900 507L900 601L771 601L643 601L514 601L386 601L257 601L129 601L0 601Z" fill="#090909"></path><path d="M0 548L129 542L257 543L386 533L514 540L643 532L771 541L900 509L900 601L771 601L643 601L514 601L386 601L257 601L129 601L0 601Z" fill="#070707"></path><path d="M0 565L129 542L257 564L386 572L514 542L643 540L771 543L900 575L900 601L771 601L643 601L514 601L386 601L257 601L129 601L0 601Z" fill="#050505"></path></svg>