<svg id="visual" viewBox="0 0 900 600" width="900" height="600" xmlns="http://www.w3.org/2000/svg" xmlns:xlink="http://www.w3.org/1999/xlink" version="1.1"><rect x="0" y="0" width="900" height="600" fill="#050505"></rect><path d="M0 403L129 444L257 399L386 397L514 425L643 364L771 362L900 439L900 601L771 601L643 601L514 601L386 601L257 601L129 601L0 601Z" fill="#0c0c0c"></path><path d="M0 448L129 461L257 401L386 479L514 408L643 465L771 474L900 414L900 601L771 601L643 601L514 601L386 601L257 601L129 601L0 601Z" fill="#0b0b0b"></path><path d="M0 466L129 450L257 468L386 437L514 494L643 447L771 507L900 484L900 601L771 601L643 601L514 601L386 601L257 601L129 601L0 601Z" fill="#090909"></path><path d="M0 535L129 528L257 529L386 517L514 525L643 516L771 526L900 487L900 601L771 601L643 601L514 601L386 601L257 601L129 601L0 601Z" fill="#070707"></path><path d="M0 556L129 528L257 555L386 565L514 527L643 525L771 529L900 569L900 601L771 601L643 601L514 601L386 601L257 601L129 601L0 601Z" fill="#050505"></path></svg>