<svg id="visual" viewBox="0 0 900 600" width="900" height="600" xmlns="http://www.w3.org/2000/svg" xmlns:xlink="http://www.w3.org/1999/xlink" version="1.1"><rect x="0" y="0" width="900" height="600" fill="#171717"></rect><path d="M0 36L21.5 37.3C43 38.7 86 41.3 128.8 40.5C171.7 39.7 214.3 35.3 257.2 34.8C300 34.3 343 37.7 385.8 40C428.7 42.3 471.3 43.7 514.2 42.7C557 41.7 600 38.3 642.8 36.5C685.7 34.7 728.3 34.3 771.2 36.3C814 38.3 857 42.7 878.5 44.8L900 47L900 0L878.5 0C857 0 814 0 771.2 0C728.3 0 685.7 0 642.8 0C600 0 557 0 514.2 0C471.3 0 428.7 0 385.8 0C343 0 300 0 257.2 0C214.3 0 171.7 0 128.8 0C86 0 43 0 21.5 0L0 0Z" fill="#2e0054"></path><path d="M0 40L21.5 39.3C43 38.7 86 37.3 128.8 36C171.7 34.7 214.3 33.3 257.2 32.5C300 31.7 343 31.3 385.8 31.5C428.7 31.7 471.3 32.3 514.2 31.7C557 31 600 29 642.8 29.2C685.7 29.3 728.3 31.7 771.2 31.8C814 32 857 30 878.5 29L900 28L900 0L878.5 0C857 0 814 0 771.2 0C728.3 0 685.7 0 642.8 0C600 0 557 0 514.2 0C471.3 0 428.7 0 385.8 0C343 0 300 0 257.2 0C214.3 0 171.7 0 128.8 0C86 0 43 0 21.5 0L0 0Z" fill="#45126b"></path><path d="M0 26L21.5 25.7C43 25.3 86 24.7 128.8 24.7C171.7 24.7 214.3 25.3 257.2 24.2C300 23 343 20 385.8 18.5C428.7 17 471.3 17 514.2 18.3C557 19.7 600 22.3 642.8 22.3C685.7 22.3 728.3 19.7 771.2 18.7C814 17.7 857 18.3 878.5 18.7L900 19L900 0L878.5 0C857 0 814 0 771.2 0C728.3 0 685.7 0 642.8 0C600 0 557 0 514.2 0C471.3 0 428.7 0 385.8 0C343 0 300 0 257.2 0C214.3 0 171.7 0 128.8 0C86 0 43 0 21.5 0L0 0Z" fill="#5d2482"></path><path d="M0 14L21.5 15.3C43 16.7 86 19.3 128.8 19.8C171.7 20.3 214.3 18.7 257.2 18C300 17.3 343 17.7 385.8 18.3C428.7 19 471.3 20 514.2 18.7C557 17.3 600 13.7 642.8 13.3C685.7 13 728.3 16 771.2 16.2C814 16.3 857 13.7 878.5 12.3L900 11L900 0L878.5 0C857 0 814 0 771.2 0C728.3 0 685.7 0 642.8 0C600 0 557 0 514.2 0C471.3 0 428.7 0 385.8 0C343 0 300 0 257.2 0C214.3 0 171.7 0 128.8 0C86 0 43 0 21.5 0L0 0Z" fill="#75369a"></path><path d="M0 13L21.5 13C43 13 86 13 128.8 13C171.7 13 214.3 13 257.2 13.2C300 13.3 343 13.7 385.8 12.3C428.7 11 471.3 8 514.2 6.5C557 5 600 5 642.8 5.8C685.7 6.7 728.3 8.3 771.2 8.8C814 9.3 857 8.7 878.5 8.3L900 8L900 0L878.5 0C857 0 814 0 771.2 0C728.3 0 685.7 0 642.8 0C600 0 557 0 514.2 0C471.3 0 428.7 0 385.8 0C343 0 300 0 257.2 0C214.3 0 171.7 0 128.8 0C86 0 43 0 21.5 0L0 0Z" fill="#8e49b2"></path></svg>