<svg id="visual" viewBox="0 0 900 600" width="900" height="600" xmlns="http://www.w3.org/2000/svg" xmlns:xlink="http://www.w3.org/1999/xlink" version="1.1"><g stroke-width="1" stroke-linejoin="bevel"><path d="M410.7 336L482.3 359L529.3 234Z" fill="#171717" stroke="#171717"></path><path d="M529.3 234L385.7 220L410.7 336Z" fill="#151515" stroke="#151515"></path><path d="M482.3 359L613.9 252L529.3 234Z" fill="#060606" stroke="#060606"></path><path d="M613.9 252L551.3 157L529.3 234Z" fill="#151515" stroke="#151515"></path><path d="M529.3 234L551.3 157L385.7 220Z" fill="#090909" stroke="#090909"></path><path d="M394.7 507L512.3 458L482.3 359Z" fill="#060606" stroke="#060606"></path><path d="M482.3 359L654.9 335L613.9 252Z" fill="#060606" stroke="#060606"></path><path d="M512.3 458L654.9 335L482.3 359Z" fill="#060606" stroke="#060606"></path><path d="M551.3 157L416.7 90L385.7 220Z" fill="#171717" stroke="#171717"></path><path d="M278.1 96L263.1 218L385.7 220Z" fill="#030303" stroke="#030303"></path><path d="M385.7 220L263.1 218L410.7 336Z" fill="#090909" stroke="#090909"></path><path d="M410.7 336L394.7 507L482.3 359Z" fill="#101010" stroke="#101010"></path><path d="M263.1 218L246.1 361L410.7 336Z" fill="#090909" stroke="#090909"></path><path d="M246.1 361L394.7 507L410.7 336Z" fill="#171717" stroke="#171717"></path><path d="M613.9 252L643.9 100L551.3 157Z" fill="#141414" stroke="#141414"></path><path d="M551.3 157L495.3 0L416.7 90Z" fill="#000000" stroke="#000000"></path><path d="M772.4 140L643.9 100L613.9 252Z" fill="#121212" stroke="#121212"></path><path d="M619.9 600L655.9 461L512.3 458Z" fill="#0c0c0c" stroke="#0c0c0c"></path><path d="M512.3 458L655.9 461L654.9 335Z" fill="#151515" stroke="#151515"></path><path d="M416.7 90L278.1 96L385.7 220Z" fill="#0c0c0c" stroke="#0c0c0c"></path><path d="M621.9 0L495.3 0L551.3 157Z" fill="#060606" stroke="#060606"></path><path d="M416.7 90L380.7 0L278.1 96Z" fill="#151515" stroke="#151515"></path><path d="M495.3 0L380.7 0L416.7 90Z" fill="#151515" stroke="#151515"></path><path d="M246.1 361L255.1 490L394.7 507Z" fill="#000000" stroke="#000000"></path><path d="M381.7 600L500.3 600L394.7 507Z" fill="#0e0e0e" stroke="#0e0e0e"></path><path d="M394.7 507L500.3 600L512.3 458Z" fill="#171717" stroke="#171717"></path><path d="M643.9 100L621.9 0L551.3 157Z" fill="#101010" stroke="#101010"></path><path d="M804.4 368L794.4 281L654.9 335Z" fill="#030303" stroke="#030303"></path><path d="M654.9 335L794.4 281L613.9 252Z" fill="#0e0e0e" stroke="#0e0e0e"></path><path d="M643.9 100L781.4 0L621.9 0Z" fill="#101010" stroke="#101010"></path><path d="M289.1 600L381.7 600L394.7 507Z" fill="#060606" stroke="#060606"></path><path d="M794.4 281L772.4 140L613.9 252Z" fill="#171717" stroke="#171717"></path><path d="M246.1 361L119.6 467L255.1 490Z" fill="#090909" stroke="#090909"></path><path d="M263.1 218L125.6 332L246.1 361Z" fill="#171717" stroke="#171717"></path><path d="M107.6 216L125.6 332L263.1 218Z" fill="#060606" stroke="#060606"></path><path d="M380.7 0L267.1 0L278.1 96Z" fill="#151515" stroke="#151515"></path><path d="M113.6 92L107.6 216L263.1 218Z" fill="#151515" stroke="#151515"></path><path d="M655.9 461L804.4 368L654.9 335Z" fill="#030303" stroke="#030303"></path><path d="M774.4 521L804.4 368L655.9 461Z" fill="#030303" stroke="#030303"></path><path d="M500.3 600L619.9 600L512.3 458Z" fill="#030303" stroke="#030303"></path><path d="M93.6 600L289.1 600L255.1 490Z" fill="#121212" stroke="#121212"></path><path d="M255.1 490L289.1 600L394.7 507Z" fill="#171717" stroke="#171717"></path><path d="M113.6 92L263.1 218L278.1 96Z" fill="#171717" stroke="#171717"></path><path d="M619.9 600L774.4 521L655.9 461Z" fill="#121212" stroke="#121212"></path><path d="M0 375L119.6 467L125.6 332Z" fill="#060606" stroke="#060606"></path><path d="M125.6 332L119.6 467L246.1 361Z" fill="#030303" stroke="#030303"></path><path d="M267.1 0L113.6 92L278.1 96Z" fill="#030303" stroke="#030303"></path><path d="M900 114L781.4 0L772.4 140Z" fill="#141414" stroke="#141414"></path><path d="M772.4 140L781.4 0L643.9 100Z" fill="#121212" stroke="#121212"></path><path d="M900 280L772.4 140L794.4 281Z" fill="#090909" stroke="#090909"></path><path d="M900 368L900 280L804.4 368Z" fill="#141414" stroke="#141414"></path><path d="M804.4 368L900 280L794.4 281Z" fill="#090909" stroke="#090909"></path><path d="M619.9 600L769.4 600L774.4 521Z" fill="#0c0c0c" stroke="#0c0c0c"></path><path d="M900 511L900 368L804.4 368Z" fill="#141414" stroke="#141414"></path><path d="M900 511L804.4 368L774.4 521Z" fill="#151515" stroke="#151515"></path><path d="M900 280L900 114L772.4 140Z" fill="#0c0c0c" stroke="#0c0c0c"></path><path d="M0 117L0 265L107.6 216Z" fill="#090909" stroke="#090909"></path><path d="M107.6 216L0 265L125.6 332Z" fill="#141414" stroke="#141414"></path><path d="M267.1 0L89.6 0L113.6 92Z" fill="#090909" stroke="#090909"></path><path d="M113.6 92L0 117L107.6 216Z" fill="#030303" stroke="#030303"></path><path d="M0 265L0 375L125.6 332Z" fill="#000000" stroke="#000000"></path><path d="M119.6 467L93.6 600L255.1 490Z" fill="#151515" stroke="#151515"></path><path d="M900 600L900 511L774.4 521Z" fill="#171717" stroke="#171717"></path><path d="M0 468L93.6 600L119.6 467Z" fill="#141414" stroke="#141414"></path><path d="M89.6 0L0 117L113.6 92Z" fill="#0e0e0e" stroke="#0e0e0e"></path><path d="M0 375L0 468L119.6 467Z" fill="#0c0c0c" stroke="#0c0c0c"></path><path d="M900 114L900 0L781.4 0Z" fill="#0e0e0e" stroke="#0e0e0e"></path><path d="M769.4 600L900 600L774.4 521Z" fill="#151515" stroke="#151515"></path><path d="M89.6 0L0 0L0 117Z" fill="#151515" stroke="#151515"></path><path d="M0 468L0 600L93.6 600Z" fill="#090909" stroke="#090909"></path></g></svg>