<svg id="visual" viewBox="0 0 900 600" width="900" height="600" xmlns="http://www.w3.org/2000/svg" xmlns:xlink="http://www.w3.org/1999/xlink" version="1.1"><rect x="0" y="0" width="900" height="600" fill="#171717"></rect><path d="M0 368L129 415L257 382L386 428L514 418L643 403L771 416L900 421L900 601L771 601L643 601L514 601L386 601L257 601L129 601L0 601Z" fill="#1f1f1f"></path><path d="M0 463L129 458L257 434L386 478L514 402L643 469L771 395L900 442L900 601L771 601L643 601L514 601L386 601L257 601L129 601L0 601Z" fill="#191919"></path><path d="M0 467L129 482L257 444L386 480L514 446L643 456L771 486L900 510L900 601L771 601L643 601L514 601L386 601L257 601L129 601L0 601Z" fill="#131313"></path><path d="M0 493L129 532L257 541L386 542L514 493L643 529L771 500L900 527L900 601L771 601L643 601L514 601L386 601L257 601L129 601L0 601Z" fill="#0b0b0b"></path><path d="M0 556L129 531L257 574L386 535L514 546L643 560L771 544L900 543L900 601L771 601L643 601L514 601L386 601L257 601L129 601L0 601Z" fill="#000000"></path></svg>