<!DOCTYPE svg PUBLIC "-//W3C//DTD SVG 1.1//EN" "http://www.w3.org/Graphics/SVG/1.1/DTD/svg11.dtd">

<!-- Uploaded to: SVG Repo, www.svgrepo.com, Transformed by: SVG Repo Mixer Tools -->
<svg fill="#C8C8C8" width="800px" height="800px" viewBox="0 0 32 32" version="1.1" xmlns="http://www.w3.org/2000/svg">

<g id="SVGRepo_bgCarrier" stroke-width="0"/>

<g id="SVGRepo_tracerCarrier" stroke-linecap="round" stroke-linejoin="round"/>

<g id="SVGRepo_iconCarrier"> <title>firebase</title> <path d="M18.874 9.935l-2.274-4.351c-0.116-0.217-0.341-0.363-0.6-0.363s-0.484 0.145-0.598 0.359l-0.002 0.004-9.985 17.894zM26.852 25.202l-2.812-17.495c-0.052-0.325-0.331-0.571-0.667-0.571-0.189 0-0.359 0.077-0.482 0.202l-0 0-17.744 17.865 9.817 5.532c0.286 0.163 0.628 0.26 0.992 0.26s0.707-0.096 1.002-0.265l-0.010 0.005zM5.865 20.589l2.955-19.008c0.051-0.328 0.331-0.577 0.67-0.577 0.258 0 0.483 0.144 0.597 0.357l0.002 0.004 3.178 5.962z"/> </g>

</svg>